<svg width="25" height="25" viewBox="0 0 25 25" fill="none" xmlns="http://www.w3.org/2000/svg">
<path fill-rule="evenodd" clip-rule="evenodd" d="M24.0748 4.68177C24.4059 3.06743 22.8203 1.72588 21.2831 2.3198L2.4402 9.60002C0.723556 10.2633 0.647066 12.6638 2.318 13.4349L6.42145 15.3289L8.37353 22.1611C8.47492 22.5159 8.75654 22.7907 9.11382 22.8833C9.4711 22.9758 9.8507 22.8725 10.1117 22.6115L13.1186 19.6045L17.3308 22.7637C18.5535 23.6806 20.3146 23.0127 20.6217 21.5155L24.0748 4.68177ZM3.19104 11.5433L22.034 4.26314L18.5808 21.097L13.6459 17.3957C13.2312 17.0847 12.6509 17.1259 12.2844 17.4925L10.9965 18.7804L11.3834 16.6522L18.9658 9.06984C19.3349 8.70082 19.3739 8.1157 19.0571 7.70098C18.7403 7.28625 18.1656 7.16993 17.7125 7.42885L7.24098 13.4125L3.19104 11.5433ZM8.51776 15.0824L9.1494 17.2932L9.39191 15.9594C9.42982 15.7509 9.53039 15.559 9.68021 15.4092L11.9926 13.0969L8.51776 15.0824Z" fill="#9c9c9c"/>
</svg>
